{"title":"Asian petite teen swallows like a Pro","uid":10799264,"size":690168437,"categoryP":"porn","categoryS":"movie_clips","magnet":"?xt=urn:btih:39b9aa2490cdc727ae2c8246a0f3d633eb4607e0&amp;dn=Asian+petite+teen+swallows+like+a+Pro&amp;tr=udp%3A%2F%2Ftracker.openbittorrent.com%3A80&amp;tr=udp%3A%2F%2Fopen.demonii.com%3A1337&amp;tr=udp%3A%2F%2Ftracker.coppersurfer.tk%3A6969&amp;tr=udp%3A%2F%2Fexodus.desync.com%3A6969","seeders":1,"leechers":1,"uploader":"ThousandPeers","files":-1,"time":1408323853,"description":"Format                                   : MPEG-4\nFormat profile                           : Base Media\nCodec ID                                 : isom\nFile size                                : 658 MiB\nDuration                                 : 32mn 20s\nOverall bit rate mode                    : Variable\nOverall bit rate                         : 2 843 Kbps\nWriting application                      : Lavf54.6.100\n\nVideo\nID                                       : 1\nFormat                                   : MPEG-4 Visual\nFormat profile                           : Simple@L3\nFormat settings, BVOP                    : No\nFormat settings, QPel                    : No\nFormat settings, GMC                     : No warppoints\nFormat settings, Matrix                  : Default (H.263)\nCodec ID                                 : 20\nDuration                                 : 32mn 20s\nBit rate mode                            : Variable\nBit rate                                 : 2 714 Kbps\nMaximum bit rate                         : 3 950 Kbps\nWidth                                    : 1 280 pixels\nHeight                                   : 720 pixels\nDisplay aspect ratio                     : 16:9\nFrame rate mode                          : Variable\nFrame rate                               : 25.000 fps\nMinimum frame rate                       : 1.786 fps\nMaximum frame rate                       : 25.000 fps\nColor space                              : YUV\nChroma subsampling                       : 4:2:0\nBit depth                                : 8 bits\nScan type                                : Progressive\nCompression mode                         : Lossy\nBits/(Pixel*Frame)                       : 0.118\nStream size                              : 628 MiB (95%)\nWriting library                          : XviD 64\n\nAudio\nID                                       : 2\nFormat                                   : AAC\nFormat/Info                              : Advanced Audio Codec\nFormat profile                           : LC\nCodec ID                                 : 40\nDuration                                 : 32mn 20s\nDuration_FirstFrame                      : 23ms\nBit rate mode                            : Variable\nBit rate                                 : 124 Kbps\nMaximum bit rate                         : 128 Kbps\nChannel(s)                               : 2 channels\nChannel positions                        : Front: L R\nSampling rate                            : 44.1 KHz\nCompression mode                         : Lossy\nStream size                              : 28.6 MiB (4%)\n","torrent":{"xt":"urn:btih:39b9aa2490cdc727ae2c8246a0f3d633eb4607e0","amp;dn":"Asian+petite+teen+swallows+like+a+Pro","amp;tr":["udp%3A%2F%2Ftracker.openbittorrent.com%3A80","udp%3A%2F%2Fopen.demonii.com%3A1337","udp%3A%2F%2Ftracker.coppersurfer.tk%3A6969","udp%3A%2F%2Fexodus.desync.com%3A6969"],"infoHash":"39b9aa2490cdc727ae2c8246a0f3d633eb4607e0","infoHashBuffer":{"type":"Buffer","data":[57,185,170,36,144,205,199,39,174,44,130,70,160,243,214,51,235,70,7,224]},"announce":[],"urlList":[]}}